/* XPM */
static char *a373225799df47dac738bd842a4ad076kg4gZi1a3i1TZ4rN[] = {
/* columns rows colors chars-per-pixel */
"32 32 16 1 ",
"  c white",
". c None",
"X c #444444",
"o c gray40",
"O c gray20",
"+ c #CCCC66",
"@ c #CC9933",
"# c #FFFF99",
"$ c #FFCC66",
"% c #999966",
"& c #888888",
"* c #FFFFCC",
"= c #999933",
"- c #FF9999",
"; c #FF9966",
": c black",
/* pixels */
"............XXXXooo.............",
".........OOO+@+@#$#ooo..........",
".......OO+@+%@%@%#$#$#&&........",
"......O@@@@%+$+$+%@%#$##&.......",
".....O@+%@%+$@%@%+$@%#$#*&......",
"....O@+%@%@%@%@%@%+$@%#$#*&.....",
"...O@+%@%@%@%@%@%@%+$#$#$#*&....",
"..O@+%@%@%@%@%@%@%@$#$#$#$#*&...",
"..O@$@%@%+%@%@%@%@%+$+$#$#$*&...",
".O@@@%@%@%+%@%@%@%+%@%+$#$##*&..",
".O@+%@%@%@$@%@%@$+%@%@%+$#$#*&..",
".O@$@%@%@%+%+$+$+%@%@%@$+$#$*&..",
"O@@+%@%@%+$+%@%@%+%@%@%@$#$##*&.",
"O@+$@%@%@%@%@$@%+$+%@%@%+$+%+*&.",
"O@@+$@%@%@%@$@$@%#$+$@%+$+%@%*&.",
"O@+$+%@%@%@%+%+$@$+%@%@%+$@%@*&.",
"O@@+$+%@%@%@%+%+$+%@%@%@%+$@#*&.",
"O@+$#$+%@$@%@$@$#$@%@%@%@$#$#*&.",
"O@@+$#$+$+%@%@%+$+%@%@%@%+$##*&.",
".O@$#$#$@%+%@%@$#$+%@%@$+%#$*&..",
".O@+$#$+%@$@%@%+$#$+$+$@%@%#*&..",
".O@@#$#$+$+$@%+$#$#$+$@%@%@$*&..",
"..O=$#$#$#$#$+$#$#$#$+%@%@$*&...",
"..O@=$#$#$#$+$+$#$#$#$#%@$#*&...",
"...O@=$#$#$+$+$+$#$#$#$#$#*&....",
"....O@=$#$#$+$+$#$#$#$#$#*&.....",
".....O@=$#$#$#$#$#$+$+$#*o......",
"......O@=$#$#$#$+$+$+$**o.......",
".......OO=@#$#$#$#$+**oo........",
".........XXX#$#$#$#ooo..........",
"............XXXXXXX.............",
"................................"
};
