/* XPM */
static char *cd2547da19794cf8938e7806f163f1400ZsXjvezC5821PHr[] = {
/* columns rows colors chars-per-pixel */
"32 32 16 1 ",
"  c white",
". c None",
"X c #777777",
"o c gray60",
"O c #888888",
"+ c #555555",
"@ c #BBBBBB",
"# c #3333CC",
"$ c #9999FF",
"% c gray20",
"& c #FFCC00",
"* c #FF99FF",
"= c #FF99CC",
"- c #FF9999",
"; c #FF9966",
": c black",
/* pixels */
"................................",
".......................::.......",
"......................:X:.......",
".....................:X :.......",
".....................:X :.......",
".....................:X :.......",
"....................:X  :::.....",
"....................:X  :oo:....",
"...........::.....::X  :ooXX:...",
"..........:: ::.:: :X  O::XX:...",
".........:: o ::   :XOO   :+:...",
".........::  :  o  :O     o:+:..",
".........::::    oo       o:Xo:.",
".........::  o  o  o     @@:oo:.",
"........::    oo    o  @@oo:XX:.",
".......:ooo  o  o    o@oo  :X:..",
"......:    oo    o  o o   O::...",
".....:       o    oo    OO   ::.",
".....:        o oo     O  ooo ::",
"....:#$     # oo     OO      :::",
"....:#$##$###       O  ::::::::.",
"...:  $##$##       O::::::::::..",
"...:         oo   ::::::........",
"..:::::     o  o:::::...........",
"..:%%:::    o ::::..............",
".:XX%%:::   ::::................",
".:XX%%:::::::::.................",
".::%%::::::::...................",
".::::::::::.....................",
"..:::::::.......................",
"...::::.........................",
"................................"
};
