/* XPM */
static char *a2a2d5312f6447018aa37ca6a2d30301kKetbSUm6NurdFPh[] = {
/* columns rows colors chars-per-pixel */
"32 32 32 1 ",
"  c None",
". c gray20",
"X c #555555",
"o c #222222",
"O c #996600",
"+ c #CC9933",
"@ c #999900",
"# c #FF9900",
"$ c #663300",
"% c gray40",
"& c #CC9900",
"* c #FF6633",
"= c #FF9966",
"- c #FFCC33",
"; c #CCCC33",
": c #CCCC99",
"> c #FFFFCC",
", c #FFFF66",
"< c #777777",
"1 c #999966",
"2 c #CCCC66",
"3 c #666633",
"4 c #FFFF99",
"5 c #CC6600",
"6 c #FF9933",
"7 c #669933",
"8 c #993300",
"9 c black",
"0 c black",
"q c black",
"w c black",
"e c black",
/* pixels */
"            9999999             ",
"         999.......999          ",
"       9999....XXXXXXX99        ",
"      99o...OO++@#@+OOXX9       ",
"     99o.$%O++#@#@&@*=OOX9      ",
"    99o.$O+#@#@#@&----++OX9     ",
"   99o.XO+#@*=&;*=---:::+OX9    ",
"  99o.$%+&@&------::::>:>+OX9   ",
"  99o.XO+*=--,,::::>:>->&+OX9   ",
" 99o.X<+---,::::>:>->&>&>&+OX9  ",
" 99o.$1:,::::>:>->&>&>&2&2+OX9  ",
" 99o.X::::>:>->&>&>&2&2-2-+OX9  ",
"99o.X1:>:>->&>&>&2&2-&-&>2-+OX9 ",
"99o.$3:->&>&>&2&2&&&&>24---+OX9 ",
"99o.X1&>&>565255&&>242-###-+OX9 ",
"99o.$O+5252565>2>-242-#####+OX9 ",
"99o.XO+5555777--##---######+OX9 ",
"99o.$O+&------##########---+OX9 ",
"99o.XO+--############------+OX9 ",
" 99o.X+########6&5#6------#OX9  ",
" 99o$XO###&&&555#------###+OX9  ",
" 99o.$%#555555------###-#-+OX9  ",
"  99o.XO555------#5#-#-#,+OX9   ",
"  99o.$%O--5555555#-#,,,+OOX9   ",
"   99o.$%O5666655#,-,,+++OX9    ",
"    99o.$XOO8885+++++++OOX9     ",
"     99oo.XXOOOO++++OOOOX9      ",
"      999o..XXXXOOOOOOXX9       ",
"       999oo..XXXXXXXX99        ",
"         99999o....999          ",
"            9999999             ",
"                                "
};
