/* XPM */
static char *_8393b91d10c4298ab7adf2a117e7d19zvdbdkztYh1evCvc[] = {
/* columns rows colors chars-per-pixel */
"32 32 8 1 ",
"  c None",
". c #9D9D9B",
"X c #C1C1BF",
"o c #E2E2E0",
"O c #B1B1AD",
"+ c #A14005",
"@ c #005EFF",
"# c white",
/* pixels */
"                                ",
"              .....             ",
"            ..ooooo..           ",
"           .oo###XXoo.          ",
"          .o##XXXXXXXo.         ",
"         .o#XXXXXXXXXXo.        ",
"         .oXXXXXXXXXXXX.        ",
"     .. .oXXXXXXXXXXXXXX.       ",
"     .o..oXXX@@@@XXXX@@X.       ",
"     .Xoo.XXX@@#@@XX@#@X.       ",
"     .XXXo.XX@@@@@@X@@@X.       ",
"      .X.XXXXX@@@@@X@@@X.       ",
"      .XX.XXXXX@@@@X@@XX.  ...  ",
"       .X.XXXXXXXXXXXXX.  .X.X. ",
"        .XX.XXXX++++XXX.  ...X. ",
"         ...XXXX++++XX.   .XX.  ",
"            ..XXX+++X.   .XX.   ",
"      ......XX..XXXX.....XX.    ",
"     .XXXXXXXXXX....XXXXXX.     ",
"    .XX....XXXXXXXXXX.....      ",
"   .XX.    .XXXXXOXX.           ",
"  .XX.     .XXOOOXOO.           ",
"  .XX.      .XXOXXX...          ",
"   ..       .XXXX..ooo.  ..     ",
"            .XX..ooXXXo..oo.    ",
"      ..    .XXooXX..XX.oXX.    ",
"     .oo.  .o.XXX..  .XXXX.     ",
"    .oXXo..oX....     .XX.      ",
"   .XXX.XooX.          ..       ",
"   .XX. .XX.                    ",
"    ..   ..                     ",
"                                "
};
